<svg xmlns="http://www.w3.org/2000/svg" xmlns:xlink="http://www.w3.org/1999/xlink" viewBox="0 0 1200 740" fill="none" font-family="'Segoe UI', system-ui, -apple-system, sans-serif">
  <defs>
    <linearGradient id="bg-grad" x1="0%" y1="0%" x2="100%" y2="100%">
      <stop offset="0%" stop-color="#eef2ff"/>
      <stop offset="50%" stop-color="#f8fafc"/>
      <stop offset="100%" stop-color="#f0f4ff"/>
    </linearGradient>
    <linearGradient id="header-grad" x1="0%" y1="0%" x2="100%" y2="0%">
      <stop offset="0%" stop-color="#1d4ed8"/>
      <stop offset="100%" stop-color="#3b82f6"/>
    </linearGradient>
    <linearGradient id="accent-line" x1="0%" y1="0%" x2="100%" y2="0%">
      <stop offset="0%" stop-color="#3b82f6" stop-opacity="0"/>
      <stop offset="20%" stop-color="#3b82f6"/>
      <stop offset="50%" stop-color="#8b5cf6"/>
      <stop offset="80%" stop-color="#3b82f6"/>
      <stop offset="100%" stop-color="#3b82f6" stop-opacity="0"/>
    </linearGradient>
    <linearGradient id="accent-job1" x1="0%" y1="0%" x2="0%" y2="100%">
      <stop offset="0%" stop-color="#3b82f6"/>
      <stop offset="100%" stop-color="#6366f1"/>
    </linearGradient>
    <linearGradient id="accent-job2" x1="0%" y1="0%" x2="0%" y2="100%">
      <stop offset="0%" stop-color="#059669"/>
      <stop offset="100%" stop-color="#10b981"/>
    </linearGradient>
    <linearGradient id="accent-job3" x1="0%" y1="0%" x2="0%" y2="100%">
      <stop offset="0%" stop-color="#f59e0b"/>
      <stop offset="100%" stop-color="#ef4444"/>
    </linearGradient>
    <linearGradient id="photo-ring" x1="0%" y1="0%" x2="100%" y2="100%">
      <stop offset="0%" stop-color="#3b82f6"/>
      <stop offset="50%" stop-color="#8b5cf6"/>
      <stop offset="100%" stop-color="#3b82f6"/>
    </linearGradient>
    <linearGradient id="trigger-grad" x1="0%" y1="0%" x2="0%" y2="100%">
      <stop offset="0%" stop-color="#dcfce7"/>
      <stop offset="100%" stop-color="#d1fae5"/>
    </linearGradient>
    <linearGradient id="actions-grad" x1="0%" y1="0%" x2="100%" y2="100%">
      <stop offset="0%" stop-color="#dbeafe"/>
      <stop offset="100%" stop-color="#e0e7ff"/>
    </linearGradient>
    <filter id="shadow-xl"><feDropShadow dx="0" dy="6" stdDeviation="12" flood-color="rgba(0,0,0,0.06)"/></filter>
    <filter id="shadow-lg"><feDropShadow dx="0" dy="4" stdDeviation="8" flood-color="rgba(0,0,0,0.06)"/></filter>
    <filter id="shadow-md"><feDropShadow dx="0" dy="2" stdDeviation="4" flood-color="rgba(0,0,0,0.05)"/></filter>
    <filter id="shadow-sm"><feDropShadow dx="0" dy="1" stdDeviation="2" flood-color="rgba(0,0,0,0.04)"/></filter>
    <filter id="glow-header"><feDropShadow dx="0" dy="4" stdDeviation="16" flood-color="rgba(29,78,216,0.2)"/></filter>
    <filter id="glow-photo"><feDropShadow dx="0" dy="0" stdDeviation="8" flood-color="rgba(99,102,241,0.35)"/></filter>
    <filter id="blur-decor"><feGaussianBlur stdDeviation="50"/></filter>
    <clipPath id="photo-clip"><circle cx="1145" cy="38" r="23"/></clipPath>
    <marker id="arrow" markerWidth="8" markerHeight="6" refX="8" refY="3" orient="auto">
      <polygon points="0 0.5, 8 3, 0 5.5" fill="#94a3b8"/>
    </marker>
    <marker id="arrow-purple" markerWidth="8" markerHeight="6" refX="8" refY="3" orient="auto">
      <polygon points="0 0.5, 8 3, 0 5.5" fill="#6366f1"/>
    </marker>
    <pattern id="dots" width="20" height="20" patternUnits="userSpaceOnUse">
      <circle cx="10" cy="10" r="0.5" fill="#94a3b8" opacity="0.25"/>
    </pattern>
  </defs>

  <!-- ==================== BACKGROUND ==================== -->
  <rect width="1200" height="740" fill="url(#bg-grad)"/>
  <rect width="1200" height="740" fill="url(#dots)"/>
  <circle cx="80" cy="80" r="140" fill="#818cf8" opacity="0.03" filter="url(#blur-decor)"/>
  <circle cx="1120" cy="660" r="120" fill="#818cf8" opacity="0.04" filter="url(#blur-decor)"/>
  <circle cx="600" cy="370" r="200" fill="#3b82f6" opacity="0.015" filter="url(#blur-decor)"/>

  <!-- ==================== HEADER ==================== -->
  <rect x="30" y="12" width="940" height="52" rx="10" fill="url(#header-grad)" filter="url(#glow-header)"/>
  <rect x="30" y="62" width="940" height="2.5" rx="1.25" fill="url(#accent-line)"/>
  <text x="46" y="44" font-size="12" font-weight="700" fill="#93c5fd" letter-spacing="0.03em">DevOps-Driven Mobile Automation Architecture:</text>
  <text x="365" y="44" font-size="12" font-weight="700" fill="#ffffff" letter-spacing="0.02em">E2E Testing with Appium, Robot Framework &amp; GitHub Actions</text>

  <!-- Author -->
  <text x="1102" y="44" font-size="16" font-weight="900" fill="#0f172a" text-anchor="end" letter-spacing="0.04em">Lotfi OTAI</text>
  <circle cx="1145" cy="38" r="26" fill="none" stroke="url(#photo-ring)" stroke-width="2.5" filter="url(#glow-photo)"/>
  <image href="dashboard/owner-photo.png" x="1122" y="15" width="46" height="46" clip-path="url(#photo-clip)" preserveAspectRatio="xMidYMid slice"/>

  <!-- ==================== LEFT: Triggers ==================== -->

  <!-- Push trigger -->
  <rect x="30" y="125" width="210" height="38" rx="8" fill="url(#trigger-grad)" stroke="#86efac" stroke-width="1.5" filter="url(#shadow-md)"/>
  <circle cx="48" cy="144" r="5" fill="#059669"/>
  <text x="48" y="148" font-size="7" font-weight="800" fill="#fff" text-anchor="middle">1</text>
  <text x="60" y="149" font-size="11.5" font-weight="700" fill="#166534">Push on the master branch</text>

  <!-- PR trigger -->
  <rect x="30" y="305" width="230" height="38" rx="8" fill="url(#trigger-grad)" stroke="#86efac" stroke-width="1.5" filter="url(#shadow-md)"/>
  <circle cx="48" cy="324" r="5" fill="#059669"/>
  <text x="48" y="328" font-size="7" font-weight="800" fill="#fff" text-anchor="middle">2</text>
  <text x="60" y="328" font-size="11.5" font-weight="700" fill="#166534">Pull Request on the master branch</text>

  <!-- User icon -->
  <circle cx="55" cy="233" r="18" fill="#dbeafe" stroke="#93c5fd" stroke-width="1.5" filter="url(#shadow-sm)"/>
  <circle cx="55" cy="227" r="6" fill="#3b82f6"/>
  <path d="M40,247 Q55,239 70,247" stroke="#3b82f6" stroke-width="2" fill="none"/>

  <!-- Git badge -->
  <rect x="100" y="215" width="60" height="36" rx="8" fill="#fff" stroke="#e2e8f0" stroke-width="1" filter="url(#shadow-md)"/>
  <text x="112" y="238" font-size="14" font-weight="800" fill="#f05032">Git</text>

  <!-- Dashed lines triggers to Git -->
  <line x1="130" y1="163" x2="130" y2="215" stroke="#94a3b8" stroke-width="1.2" stroke-dasharray="4,3" opacity="0.6"/>
  <line x1="140" y1="305" x2="140" y2="251" stroke="#94a3b8" stroke-width="1.2" stroke-dasharray="4,3" opacity="0.6"/>

  <!-- GitHub badge -->
  <rect x="200" y="205" width="80" height="56" rx="10" fill="#fff" stroke="#e2e8f0" stroke-width="1" filter="url(#shadow-md)"/>
  <circle cx="240" cy="227" r="14" fill="#24292f"/>
  <text x="240" y="231" font-size="10" font-weight="800" fill="#fff" text-anchor="middle">GH</text>
  <text x="215" y="253" font-size="10" font-weight="600" fill="#1e293b">GitHub</text>

  <!-- Arrow Git to GitHub -->
  <line x1="160" y1="233" x2="198" y2="233" stroke="#94a3b8" stroke-width="1.5" marker-end="url(#arrow)"/>

  <!-- Workflow Trigger diamond -->
  <polygon points="330,233 370,210 410,233 370,256" fill="#fff" stroke="#6366f1" stroke-width="1.5" filter="url(#shadow-md)"/>
  <text x="342" y="229" font-size="9" font-weight="600" fill="#4f46e5">Workflow</text>
  <text x="347" y="241" font-size="9" font-weight="600" fill="#4f46e5">Trigger</text>

  <!-- Arrow GitHub to Trigger -->
  <line x1="280" y1="233" x2="328" y2="233" stroke="#94a3b8" stroke-width="1.5" marker-end="url(#arrow)"/>

  <!-- GitHub Actions hub -->
  <rect x="440" y="213" width="165" height="42" rx="10" fill="url(#actions-grad)" stroke="#93c5fd" stroke-width="1.5" filter="url(#shadow-md)"/>
  <text x="462" y="239" font-size="12" font-weight="700" fill="#1d4ed8">GitHub Actions (CI/CD)</text>

  <!-- Arrow Trigger to Actions -->
  <line x1="410" y1="233" x2="438" y2="233" stroke="#6366f1" stroke-width="1.5" marker-end="url(#arrow-purple)"/>

  <!-- ==================== RIGHT: Job Cards ==================== -->

  <!-- === JOB 1: E2E Tests === -->
  <rect x="660" y="88" width="505" height="172" rx="14" fill="#fff" stroke="#e2e8f0" stroke-width="1" filter="url(#shadow-lg)"/>
  <rect x="660" y="98" width="4" height="152" rx="2" fill="url(#accent-job1)"/>

  <rect x="672" y="78" width="222" height="26" rx="6" fill="#0f172a" filter="url(#shadow-sm)"/>
  <text x="684" y="95" font-size="11" font-weight="700" fill="#e2e8f0" letter-spacing="0.02em">Run E2E Tests on Android Emulator</text>

  <!-- Tool badges -->
  <rect x="677" y="108" width="96" height="22" rx="6" fill="#f8fafc" stroke="#d1d5db" stroke-width="0.8"/>
  <text x="684" y="123" font-size="9" font-weight="700" fill="#24292f">GitHub Actions</text>
  <rect x="677" y="134" width="96" height="22" rx="6" fill="#ecfdf5" stroke="#a7f3d0" stroke-width="0.8"/>
  <text x="684" y="149" font-size="9" font-weight="600" fill="#059669">Robot Framework</text>
  <rect x="677" y="160" width="96" height="22" rx="6" fill="#faf5ff" stroke="#d8b4fe" stroke-width="0.8"/>
  <text x="687" y="175" font-size="9" font-weight="600" fill="#662d91">AppiumLibrary</text>

  <!-- Steps -->
  <circle cx="792" cy="116" r="7" fill="#eef2ff" stroke="#818cf8" stroke-width="1"/>
  <text x="792" y="119" font-size="7" font-weight="800" fill="#4f46e5" text-anchor="middle">1</text>
  <text x="805" y="120" font-size="10.5" fill="#334155">Set up JDK 17, Node.js 20, Python 3.12</text>

  <circle cx="792" cy="136" r="7" fill="#eef2ff" stroke="#818cf8" stroke-width="1"/>
  <text x="792" y="139" font-size="7" font-weight="800" fill="#4f46e5" text-anchor="middle">2</text>
  <text x="805" y="140" font-size="10.5" fill="#334155">Start Android Emulator (API 34, Pixel 7)</text>

  <circle cx="792" cy="156" r="7" fill="#eef2ff" stroke="#818cf8" stroke-width="1"/>
  <text x="792" y="159" font-size="7" font-weight="800" fill="#4f46e5" text-anchor="middle">3</text>
  <text x="805" y="160" font-size="10.5" fill="#334155">Install APK &amp; start Appium server</text>

  <circle cx="792" cy="176" r="7" fill="#eef2ff" stroke="#818cf8" stroke-width="1"/>
  <text x="792" y="179" font-size="7" font-weight="800" fill="#4f46e5" text-anchor="middle">4</text>
  <text x="805" y="180" font-size="10.5" fill="#334155">Run Robot Framework tests (5 test cases)</text>

  <circle cx="792" cy="196" r="7" fill="#eef2ff" stroke="#818cf8" stroke-width="1"/>
  <text x="792" y="199" font-size="7" font-weight="800" fill="#4f46e5" text-anchor="middle">5</text>
  <text x="805" y="200" font-size="10.5" fill="#334155">Upload test results as artifact</text>

  <!-- Arrow Actions to Job 1 -->
  <path d="M605,231 L635,170 L658,170" stroke="#6366f1" stroke-width="1.5" fill="none" marker-end="url(#arrow-purple)" opacity="0.6"/>

  <!-- === JOB 2: Generate Dashboard Report === -->
  <rect x="660" y="288" width="505" height="132" rx="14" fill="#fff" stroke="#e2e8f0" stroke-width="1" filter="url(#shadow-lg)"/>
  <rect x="660" y="298" width="4" height="112" rx="2" fill="url(#accent-job2)"/>

  <rect x="672" y="278" width="206" height="26" rx="6" fill="#0f172a" filter="url(#shadow-sm)"/>
  <text x="684" y="295" font-size="11" font-weight="700" fill="#e2e8f0" letter-spacing="0.02em">Generate Dashboard Report</text>

  <!-- Tool badges -->
  <rect x="677" y="308" width="62" height="24" rx="6" fill="#eff6ff" stroke="#bfdbfe" stroke-width="0.8"/>
  <text x="685" y="325" font-size="10" font-weight="700" fill="#3776ab">Python</text>
  <rect x="677" y="338" width="62" height="24" rx="6" fill="#fff1f2" stroke="#fecdd3" stroke-width="0.8"/>
  <text x="682" y="355" font-size="10" font-weight="700" fill="#ff6384">Chart.js</text>

  <!-- Steps -->
  <circle cx="792" cy="316" r="7" fill="#ecfdf5" stroke="#6ee7b7" stroke-width="1"/>
  <text x="792" y="319" font-size="7" font-weight="800" fill="#059669" text-anchor="middle">1</text>
  <text x="805" y="320" font-size="10.5" fill="#334155">Restore run history from GitHub Pages</text>

  <circle cx="792" cy="336" r="7" fill="#ecfdf5" stroke="#6ee7b7" stroke-width="1"/>
  <text x="792" y="339" font-size="7" font-weight="800" fill="#059669" text-anchor="middle">2</text>
  <text x="805" y="340" font-size="10.5" fill="#334155">Parse output.xml &#x2192; generate report_data.json</text>

  <circle cx="792" cy="356" r="7" fill="#ecfdf5" stroke="#6ee7b7" stroke-width="1"/>
  <text x="792" y="359" font-size="7" font-weight="800" fill="#059669" text-anchor="middle">3</text>
  <text x="805" y="360" font-size="10.5" fill="#334155">Embed data into dashboard index.html</text>

  <circle cx="792" cy="376" r="7" fill="#ecfdf5" stroke="#6ee7b7" stroke-width="1"/>
  <text x="792" y="379" font-size="7" font-weight="800" fill="#059669" text-anchor="middle">4</text>
  <text x="805" y="380" font-size="10.5" fill="#334155">Keep last 20 runs in test stability history</text>

  <!-- Arrow Actions to Job 2 -->
  <path d="M605,237 L635,350 L658,350" stroke="#6366f1" stroke-width="1.5" fill="none" marker-end="url(#arrow-purple)" opacity="0.6"/>

  <!-- Arrow Job 1 to Job 2 -->
  <line x1="912" y1="260" x2="912" y2="286" stroke="#94a3b8" stroke-width="1.5" marker-end="url(#arrow)" opacity="0.6"/>

  <!-- === JOB 3: Deploy Dashboard to GitHub Pages === -->
  <rect x="660" y="448" width="505" height="125" rx="14" fill="#fff" stroke="#e2e8f0" stroke-width="1" filter="url(#shadow-lg)"/>
  <rect x="660" y="458" width="4" height="105" rx="2" fill="url(#accent-job3)"/>

  <rect x="672" y="438" width="244" height="26" rx="6" fill="#0f172a" filter="url(#shadow-sm)"/>
  <text x="684" y="455" font-size="11" font-weight="700" fill="#e2e8f0" letter-spacing="0.02em">Deploy Dashboard to GitHub Pages</text>

  <!-- Tool badges -->
  <rect x="677" y="470" width="82" height="24" rx="6" fill="#f8fafc" stroke="#d1d5db" stroke-width="0.8"/>
  <text x="682" y="487" font-size="10" font-weight="700" fill="#24292f">GitHub Pages</text>
  <rect x="677" y="500" width="62" height="24" rx="6" fill="#eff6ff" stroke="#bfdbfe" stroke-width="0.8"/>
  <text x="686" y="517" font-size="10" font-weight="700" fill="#1d4ed8">Live URL</text>

  <!-- Steps -->
  <circle cx="792" cy="478" r="7" fill="#fef3c7" stroke="#fcd34d" stroke-width="1"/>
  <text x="792" y="481" font-size="7" font-weight="800" fill="#b45309" text-anchor="middle">1</text>
  <text x="805" y="482" font-size="10.5" fill="#334155">Prepare _site/ with dashboard assets</text>

  <circle cx="792" cy="498" r="7" fill="#fef3c7" stroke="#fcd34d" stroke-width="1"/>
  <text x="792" y="501" font-size="7" font-weight="800" fill="#b45309" text-anchor="middle">2</text>
  <text x="805" y="502" font-size="10.5" fill="#334155">Deploy to GitHub Pages (actions/deploy-pages)</text>

  <circle cx="792" cy="518" r="7" fill="#fef3c7" stroke="#fcd34d" stroke-width="1"/>
  <text x="792" y="521" font-size="7" font-weight="800" fill="#b45309" text-anchor="middle">3</text>
  <text x="805" y="522" font-size="10.5" fill="#334155">Generate job summary with live dashboard URL</text>

  <circle cx="792" cy="540" r="4" fill="#059669"/>
  <text x="805" y="544" font-size="10" font-weight="600" fill="#059669">https://otailotfi.github.io/MobileAndroidAppiumE2E.OTAI/</text>

  <!-- Arrow Job 2 to Job 3 -->
  <line x1="912" y1="420" x2="912" y2="446" stroke="#94a3b8" stroke-width="1.5" marker-end="url(#arrow)" opacity="0.6"/>

  <!-- ==================== BOTTOM: Tech Stack ==================== -->
  <rect x="173" y="600" width="854" height="88" rx="14" fill="#fff" stroke="#e2e8f0" stroke-width="1" filter="url(#shadow-lg)"/>
  <rect x="173" y="600" width="854" height="3" rx="1.5" fill="url(#accent-line)"/>

  <!-- Category: Automation & Testing -->
  <text x="191" y="624" font-size="8.5" font-weight="800" fill="#0f172a" letter-spacing="0.12em">AUTOMATION &amp; TESTING</text>
  <rect x="191" y="632" width="70" height="26" rx="6" fill="#faf5ff" stroke="#d8b4fe" stroke-width="0.8"/>
  <text x="203" y="649" font-size="10.5" font-weight="800" fill="#662d91">Appium</text>
  <rect x="267" y="632" width="112" height="26" rx="6" fill="#ecfdf5" stroke="#a7f3d0" stroke-width="0.8"/>
  <text x="275" y="649" font-size="10.5" font-weight="700" fill="#059669">Robot Framework</text>
  <rect x="385" y="632" width="42" height="26" rx="6" fill="#dcfce7" stroke="#86efac" stroke-width="0.8"/>
  <text x="393" y="649" font-size="10.5" font-weight="800" fill="#2BAF6A">ADB</text>

  <line x1="441" y1="612" x2="441" y2="680" stroke="#e2e8f0" stroke-width="1"/>

  <!-- Category: Languages & Runtimes -->
  <text x="455" y="624" font-size="8.5" font-weight="800" fill="#0f172a" letter-spacing="0.12em">LANGUAGES &amp; RUNTIMES</text>
  <rect x="455" y="632" width="62" height="26" rx="6" fill="#eff6ff" stroke="#bfdbfe" stroke-width="0.8"/>
  <text x="465" y="649" font-size="10.5" font-weight="800" fill="#3776ab">Python</text>
  <rect x="523" y="632" width="64" height="26" rx="6" fill="#ecfdf5" stroke="#a7f3d0" stroke-width="0.8"/>
  <text x="531" y="649" font-size="10.5" font-weight="800" fill="#339933">Node.js</text>
  <rect x="593" y="632" width="48" height="26" rx="6" fill="#fffbeb" stroke="#fcd34d" stroke-width="0.8"/>
  <text x="604" y="649" font-size="10.5" font-weight="800" fill="#d97706">Java</text>

  <line x1="655" y1="612" x2="655" y2="680" stroke="#e2e8f0" stroke-width="1"/>

  <!-- Category: CI/CD & Infrastructure -->
  <text x="669" y="624" font-size="8.5" font-weight="800" fill="#0f172a" letter-spacing="0.12em">CI/CD &amp; INFRASTRUCTURE</text>
  <rect x="669" y="632" width="104" height="26" rx="6" fill="#f8fafc" stroke="#d1d5db" stroke-width="0.8"/>
  <text x="679" y="649" font-size="10.5" font-weight="700" fill="#24292f">GitHub Actions</text>
  <rect x="779" y="632" width="96" height="26" rx="6" fill="#eff6ff" stroke="#bfdbfe" stroke-width="0.8"/>
  <text x="789" y="649" font-size="10.5" font-weight="700" fill="#1d4ed8">GitHub Pages</text>
  <rect x="881" y="632" width="40" height="26" rx="6" fill="#fef2f2" stroke="#fecaca" stroke-width="0.8"/>
  <text x="891" y="649" font-size="10.5" font-weight="800" fill="#f05032">Git</text>

  <line x1="935" y1="612" x2="935" y2="680" stroke="#e2e8f0" stroke-width="1"/>

  <!-- Category: Reporting -->
  <text x="949" y="624" font-size="8.5" font-weight="800" fill="#0f172a" letter-spacing="0.12em">REPORTING</text>
  <rect x="949" y="632" width="64" height="26" rx="6" fill="#fff1f2" stroke="#fecdd3" stroke-width="0.8"/>
  <text x="957" y="649" font-size="10.5" font-weight="700" fill="#ff6384">Chart.js</text>
</svg>
